<?xml version="1.0" encoding="UTF-8" standalone="no"?>
<!DOCTYPE svg PUBLIC "-//W3C//DTD SVG 1.1//EN" "http://www.w3.org/Graphics/SVG/1.1/DTD/svg11.dtd">
<svg width="100%" height="100%" viewBox="0 0 512 512" version="1.1" xmlns="http://www.w3.org/2000/svg" xmlns:xlink="http://www.w3.org/1999/xlink" xml:space="preserve" xmlns:serif="http://www.serif.com/" style="fill-rule:evenodd;clip-rule:evenodd;stroke-linejoin:round;stroke-miterlimit:2;">
    <g id="base" transform="matrix(1.02516,0,0,1.15475,-12.8823,-77.7407)">
        <rect x="12.566" y="67.323" width="499.434" height="443.387" style="fill:rgb(235,235,235);"/>
    </g>
    <g id="rbrace" transform="matrix(1.37138,0,0,1.37138,-243.87,-660.638)">
        <path d="M400,509.108L522.892,632L400,754.892L400,692.667L460.667,632L400,571.333L400,509.108Z" style="fill-rule:nonzero;"/>
    </g>
    <g id="lbrace" transform="matrix(1.37138,0,0,1.37138,-243.87,-660.638)">
        <path d="M329,509.108L329,571.333L268.333,632L329,692.667L329,754.892L206.108,632L329,509.108Z" style="fill-rule:nonzero;"/>
    </g>
    <g id="orect" transform="matrix(1.37138,0,0,1.37138,-241.43,-658.198)">
        <path d="M362.721,569.914L378.984,586.178L423.027,630.221L406.763,646.484L378.984,674.263L362.721,690.527L302.415,630.221L318.678,613.957L362.721,569.914Z" style="fill:rgb(237,81,0);fill-rule:nonzero;"/>
    </g>
    <g id="codebox" transform="matrix(1.12979,0,0,1.11186,-28.2695,-17.1143)">
        <path id="c" d="M89.76,442.114C86.882,442.114 84.364,441.569 82.206,440.48C80.047,439.39 78.382,437.849 77.21,435.855C76.039,433.861 75.453,431.507 75.453,428.793L75.453,409.182C75.453,406.427 76.039,404.063 77.21,402.09C78.382,400.116 80.047,398.585 82.206,397.495C84.364,396.406 86.882,395.861 89.76,395.861C92.679,395.861 95.198,396.406 97.315,397.495C99.432,398.585 101.087,400.116 102.279,402.09C103.472,404.063 104.068,406.427 104.068,409.182L96.297,409.182C96.297,407.044 95.732,405.42 94.601,404.31C93.471,403.2 91.857,402.645 89.76,402.645C87.663,402.645 86.039,403.2 84.888,404.31C83.737,405.42 83.162,407.024 83.162,409.12L83.162,428.793C83.162,430.89 83.737,432.504 84.888,433.634C86.039,434.765 87.663,435.33 89.76,435.33C91.857,435.33 93.471,434.765 94.601,433.634C95.732,432.504 96.297,430.89 96.297,428.793L104.068,428.793C104.068,431.466 103.472,433.809 102.279,435.824C101.087,437.838 99.432,439.39 97.315,440.48C95.198,441.569 92.679,442.114 89.76,442.114Z" style="fill:rgb(237,81,0);fill-rule:nonzero;"/>
        <path id="o1" d="M144.4,442.114C141.522,442.114 139.025,441.569 136.907,440.48C134.79,439.39 133.166,437.849 132.035,435.855C130.905,433.861 130.34,431.507 130.34,428.793L130.34,409.182C130.34,406.469 130.905,404.115 132.035,402.121C133.166,400.127 134.79,398.585 136.907,397.495C139.025,396.406 141.522,395.861 144.4,395.861C147.32,395.861 149.827,396.406 151.924,397.495C154.021,398.585 155.635,400.127 156.765,402.121C157.896,404.115 158.461,406.448 158.461,409.12L158.461,428.793C158.461,431.507 157.896,433.861 156.765,435.855C155.635,437.849 154.021,439.39 151.924,440.48C149.827,441.569 147.32,442.114 144.4,442.114ZM144.4,435.33C146.497,435.33 148.08,434.765 149.149,433.634C150.218,432.504 150.753,430.89 150.753,428.793L150.753,409.182C150.753,407.044 150.218,405.42 149.149,404.31C148.08,403.2 146.497,402.645 144.4,402.645C142.304,402.645 140.721,403.2 139.652,404.31C138.583,405.42 138.048,407.044 138.048,409.182L138.048,428.793C138.048,430.89 138.593,432.504 139.683,433.634C140.772,434.765 142.345,435.33 144.4,435.33Z" style="fill:rgb(237,81,0);fill-rule:nonzero;"/>
        <path id="d" d="M182.945,441.497L182.945,396.478L196.327,396.478C199.37,396.478 202.011,397.054 204.252,398.205C206.492,399.356 208.23,400.98 209.463,403.077C210.696,405.173 211.313,407.661 211.313,410.539L211.313,427.375C211.313,430.212 210.696,432.689 209.463,434.806C208.23,436.924 206.492,438.568 204.252,439.74C202.011,440.912 199.37,441.497 196.327,441.497L182.945,441.497ZM190.653,434.405L196.327,434.405C198.547,434.405 200.315,433.778 201.631,432.524C202.946,431.27 203.604,429.554 203.604,427.375L203.604,410.539C203.604,408.401 202.946,406.705 201.631,405.451C200.315,404.197 198.547,403.57 196.327,403.57L190.653,403.57L190.653,434.405Z" style="fill:rgb(237,81,0);fill-rule:nonzero;"/>
        <path id="e" d="M236.166,441.497L236.166,396.478L263.178,396.478L263.178,403.2L243.752,403.2L243.752,414.917L261.02,414.917L261.02,421.578L243.752,421.578L243.752,434.775L263.178,434.775L263.178,441.497L236.166,441.497Z" style="fill:rgb(237,81,0);fill-rule:nonzero;"/>
        <path id="b" d="M287.908,441.497L287.908,396.478L301.722,396.478C306.08,396.478 309.534,397.516 312.083,399.592C314.632,401.669 315.906,404.495 315.906,408.072C315.906,410.087 315.454,411.834 314.55,413.314C313.645,414.794 312.422,415.945 310.88,416.768C309.339,417.59 307.56,418.001 305.546,418.001L305.546,417.754C307.725,417.713 309.667,418.114 311.374,418.957C313.08,419.8 314.437,421.043 315.444,422.688C316.451,424.332 316.955,426.327 316.955,428.67C316.955,431.26 316.359,433.521 315.166,435.454C313.974,437.386 312.299,438.876 310.14,439.925C307.982,440.973 305.402,441.497 302.401,441.497L287.908,441.497ZM295.432,435.084L301.907,435.084C304.168,435.084 305.947,434.477 307.242,433.264C308.537,432.052 309.184,430.397 309.184,428.3C309.184,426.203 308.537,424.507 307.242,423.212C305.947,421.917 304.168,421.27 301.907,421.27L295.432,421.27L295.432,435.084ZM295.432,415.041L301.599,415.041C303.655,415.041 305.268,414.496 306.44,413.407C307.612,412.317 308.198,410.827 308.198,408.935C308.198,407.044 307.612,405.564 306.44,404.495C305.268,403.426 303.655,402.892 301.599,402.892L295.432,402.892L295.432,415.041Z" style="fill:rgb(237,81,0);fill-rule:nonzero;"/>
        <path id="_02" serif:id="02" d="M352.23,442.114C349.353,442.114 346.855,441.569 344.737,440.48C342.62,439.39 340.996,437.849 339.866,435.855C338.735,433.861 338.17,431.507 338.17,428.793L338.17,409.182C338.17,406.469 338.735,404.115 339.866,402.121C340.996,400.127 342.62,398.585 344.737,397.495C346.855,396.406 349.353,395.861 352.23,395.861C355.15,395.861 357.657,396.406 359.754,397.495C361.851,398.585 363.465,400.127 364.595,402.121C365.726,404.115 366.291,406.448 366.291,409.12L366.291,428.793C366.291,431.507 365.726,433.861 364.595,435.855C363.465,437.849 361.851,439.39 359.754,440.48C357.657,441.569 355.15,442.114 352.23,442.114ZM352.23,435.33C354.327,435.33 355.91,434.765 356.979,433.634C358.048,432.504 358.583,430.89 358.583,428.793L358.583,409.182C358.583,407.044 358.048,405.42 356.979,404.31C355.91,403.2 354.327,402.645 352.23,402.645C350.134,402.645 348.551,403.2 347.482,404.31C346.413,405.42 345.878,407.044 345.878,409.182L345.878,428.793C345.878,430.89 346.423,432.504 347.513,433.634C348.602,434.765 350.175,435.33 352.23,435.33Z" style="fill:rgb(237,81,0);fill-rule:nonzero;"/>
        <path id="x" d="M387.876,441.497L400.334,418.433L388.616,396.478L397.25,396.478L402.924,407.764C403.335,408.586 403.705,409.377 404.034,410.138C404.363,410.899 404.609,411.484 404.774,411.896C404.897,411.484 405.123,410.899 405.452,410.138C405.781,409.377 406.151,408.586 406.562,407.764L412.298,396.478L420.685,396.478L408.967,418.248L421.425,441.497L412.791,441.497L406.439,429.04C406.028,428.218 405.648,427.416 405.298,426.635C404.949,425.854 404.692,425.237 404.527,424.785C404.363,425.237 404.116,425.854 403.787,426.635C403.458,427.416 403.088,428.218 402.677,429.04L396.263,441.497L387.876,441.497Z" style="fill:rgb(237,81,0);fill-rule:nonzero;"/>
    </g>
</svg>
